<svg xmlns="http://www.w3.org/2000/svg" xmlns:xlink="http://www.w3.org/1999/xlink" width="153" height="168" viewBox="0 0 153 168"><rect width="100%" height="100%" fill="#DDDDDD"/><path d="M36.63 89.65L39.36 89.65L39.36 91.59L30.96 91.59L30.96 89.65L34.03 89.65L34.03 80.80Q34.03 80.27 34.06 79.72L34.06 79.72L31.88 81.54Q31.69 81.69 31.51 81.73Q31.32 81.76 31.16 81.73Q31.00 81.70 30.87 81.62Q30.75 81.54 30.68 81.45L30.68 81.45L29.86 80.32L34.49 76.39L36.63 76.39L36.63 89.65ZM45.47 78.76L44.93 81.92Q45.44 81.82 45.90 81.77Q46.36 81.72 46.79 81.72L46.79 81.72Q47.99 81.72 48.90 82.08Q49.81 82.44 50.43 83.07Q51.05 83.70 51.37 84.54Q51.68 85.39 51.68 86.36L51.68 86.36Q51.68 87.57 51.26 88.57Q50.83 89.56 50.08 90.27Q49.32 90.98 48.29 91.37Q47.25 91.76 46.03 91.76L46.03 91.76Q45.32 91.76 44.68 91.61Q44.04 91.47 43.48 91.22Q42.92 90.97 42.44 90.65Q41.96 90.33 41.58 89.97L41.58 89.97L42.38 88.87Q42.63 88.52 43.04 88.52L43.04 88.52Q43.30 88.52 43.58 88.68Q43.85 88.85 44.20 89.05Q44.55 89.25 45.03 89.42Q45.51 89.59 46.18 89.59L46.18 89.59Q46.90 89.59 47.44 89.35Q47.99 89.12 48.35 88.71Q48.71 88.29 48.90 87.72Q49.08 87.15 49.08 86.48L49.08 86.48Q49.08 85.24 48.36 84.54Q47.64 83.84 46.23 83.84L46.23 83.84Q45.15 83.84 44.02 84.24L44.02 84.24L42.40 83.78L43.66 76.41L51.16 76.41L51.16 77.51Q51.16 78.07 50.81 78.41Q50.47 78.76 49.64 78.76L49.64 78.76L45.47 78.76ZM55.35 80.88L53.98 80.64Q54.14 79.55 54.59 78.72Q55.04 77.90 55.72 77.35Q56.40 76.80 57.27 76.52Q58.15 76.24 59.16 76.24L59.16 76.24Q60.21 76.24 61.05 76.54Q61.90 76.84 62.50 77.37Q63.10 77.90 63.42 78.61Q63.74 79.33 63.74 80.16L63.74 80.16Q63.74 80.88 63.57 81.43Q63.41 81.98 63.11 82.39Q62.80 82.80 62.35 83.09Q61.90 83.37 61.33 83.56L61.33 83.56Q62.70 83.99 63.37 84.87Q64.04 85.75 64.04 87.09L64.04 87.09Q64.04 88.22 63.62 89.09Q63.20 89.96 62.49 90.56Q61.77 91.15 60.83 91.45Q59.89 91.76 58.84 91.76L58.84 91.76Q57.70 91.76 56.85 91.50Q56.00 91.23 55.37 90.72Q54.74 90.21 54.30 89.46Q53.86 88.71 53.54 87.74L53.54 87.74L54.69 87.27Q55.14 87.08 55.53 87.17Q55.93 87.25 56.10 87.59L56.10 87.59Q56.29 87.96 56.52 88.32Q56.74 88.67 57.06 88.95Q57.37 89.23 57.80 89.40Q58.22 89.58 58.81 89.58L58.81 89.58Q59.47 89.58 59.97 89.36Q60.46 89.14 60.79 88.80Q61.12 88.45 61.29 88.03Q61.45 87.60 61.45 87.17L61.45 87.17Q61.45 86.63 61.33 86.18Q61.22 85.73 60.85 85.42Q60.48 85.10 59.79 84.92Q59.11 84.75 57.95 84.75L57.95 84.75L57.95 82.90Q58.91 82.89 59.54 82.72Q60.17 82.55 60.54 82.25Q60.91 81.95 61.06 81.53Q61.21 81.11 61.21 80.61L61.21 80.61Q61.21 79.54 60.61 78.98Q60.01 78.42 59.01 78.42L59.01 78.42Q58.55 78.42 58.16 78.56Q57.77 78.69 57.46 78.92Q57.15 79.16 56.94 79.47Q56.73 79.79 56.63 80.17L56.63 80.17Q56.45 80.65 56.16 80.81Q55.87 80.97 55.35 80.88L55.35 80.88ZM81.18 88.12L79.80 89.47L76.24 85.91L72.65 89.49L71.28 88.14L74.87 84.54L71.44 81.11L72.81 79.75L76.23 83.17L79.63 79.77L81.02 81.13L77.61 84.55L81.18 88.12ZM95.55 89.65L98.28 89.65L98.28 91.59L89.88 91.59L89.88 89.65L92.96 89.65L92.96 80.80Q92.96 80.27 92.99 79.72L92.99 79.72L90.81 81.54Q90.62 81.69 90.43 81.73Q90.25 81.76 90.09 81.73Q89.92 81.70 89.80 81.62Q89.67 81.54 89.61 81.45L89.61 81.45L88.79 80.32L93.42 76.39L95.55 76.39L95.55 89.65ZM109.58 76.41L105.08 81.92L104.55 82.57Q104.99 82.35 105.50 82.23Q106.01 82.11 106.60 82.11L106.60 82.11Q107.46 82.11 108.27 82.39Q109.09 82.68 109.71 83.25Q110.33 83.82 110.70 84.67Q111.08 85.52 111.08 86.66L111.08 86.66Q111.08 87.72 110.69 88.65Q110.30 89.58 109.60 90.27Q108.90 90.96 107.91 91.36Q106.91 91.76 105.72 91.76L105.72 91.76Q104.50 91.76 103.53 91.37Q102.57 90.98 101.88 90.28Q101.20 89.59 100.84 88.60Q100.48 87.62 100.48 86.43L100.48 86.43Q100.48 85.35 100.91 84.23Q101.35 83.10 102.26 81.88L102.26 81.88L105.88 77.02Q106.07 76.77 106.44 76.59Q106.80 76.41 107.27 76.41L107.27 76.41L109.58 76.41ZM105.66 89.64L105.66 89.64Q106.28 89.64 106.80 89.43Q107.32 89.22 107.70 88.84Q108.07 88.46 108.28 87.95Q108.49 87.44 108.49 86.85L108.49 86.85Q108.49 86.19 108.29 85.67Q108.09 85.16 107.72 84.79Q107.35 84.43 106.84 84.24Q106.33 84.05 105.71 84.05L105.71 84.05Q105.09 84.05 104.58 84.26Q104.08 84.47 103.72 84.85Q103.36 85.22 103.16 85.73Q102.97 86.24 102.97 86.82L102.97 86.82Q102.97 87.45 103.14 87.97Q103.31 88.49 103.65 88.86Q103.99 89.23 104.50 89.43Q105.00 89.64 105.66 89.64ZM117.86 89.73L117.86 89.73Q118.51 89.73 118.99 89.55Q119.47 89.37 119.80 89.04Q120.13 88.71 120.30 88.26Q120.47 87.81 120.47 87.29L120.47 87.29Q120.47 86.04 119.78 85.40Q119.08 84.76 117.86 84.76L117.86 84.76Q116.65 84.76 115.95 85.40Q115.26 86.04 115.26 87.29L115.26 87.29Q115.26 87.81 115.43 88.26Q115.60 88.71 115.93 89.04Q116.26 89.37 116.74 89.55Q117.22 89.73 117.86 89.73ZM117.86 78.19L117.86 78.19Q117.29 78.19 116.87 78.37Q116.45 78.55 116.17 78.85Q115.89 79.15 115.76 79.54Q115.63 79.93 115.63 80.36L115.63 80.36Q115.63 80.81 115.74 81.23Q115.85 81.66 116.11 81.99Q116.37 82.32 116.80 82.52Q117.23 82.72 117.86 82.72L117.86 82.72Q118.49 82.72 118.93 82.52Q119.36 82.32 119.62 81.99Q119.88 81.66 119.99 81.23Q120.10 80.81 120.10 80.36L120.10 80.36Q120.10 79.93 119.96 79.54Q119.83 79.15 119.56 78.85Q119.28 78.55 118.86 78.37Q118.44 78.19 117.86 78.19ZM120.43 83.67L120.43 83.67Q121.81 84.13 122.47 85.06Q123.14 85.98 123.14 87.33L123.14 87.33Q123.14 88.34 122.75 89.16Q122.37 89.97 121.68 90.55Q120.98 91.13 120.01 91.44Q119.04 91.76 117.86 91.76L117.86 91.76Q116.69 91.76 115.72 91.44Q114.75 91.13 114.05 90.55Q113.36 89.97 112.98 89.16Q112.59 88.34 112.59 87.33L112.59 87.33Q112.59 85.98 113.26 85.06Q113.92 84.13 115.30 83.67L115.30 83.67Q114.20 83.21 113.65 82.36Q113.10 81.51 113.10 80.31L113.10 80.31Q113.10 79.45 113.45 78.71Q113.80 77.96 114.43 77.41Q115.06 76.86 115.94 76.55Q116.81 76.24 117.86 76.24L117.86 76.24Q118.91 76.24 119.79 76.55Q120.67 76.86 121.30 77.41Q121.93 77.96 122.28 78.71Q122.63 79.45 122.63 80.31L122.63 80.31Q122.63 81.51 122.08 82.36Q121.53 83.21 120.43 83.67Z" fill="#999999"/></svg>