<svg xmlns="http://www.w3.org/2000/svg" xmlns:xlink="http://www.w3.org/1999/xlink" width="432" height="264" viewBox="0 0 432 264"><rect width="100%" height="100%" fill="#DDDDDD"/><path d="M90.55 137.25L103.53 137.25L103.53 123.30Q103.53 121.32 103.80 118.93L103.80 118.93L90.55 137.25ZM109.87 137.25L115.24 137.25L115.24 141.47Q115.24 142.06 114.86 142.49Q114.48 142.92 113.77 142.92L113.77 142.92L109.87 142.92L109.87 153.33L103.53 153.33L103.53 142.92L85.54 142.92Q84.80 142.92 84.24 142.46Q83.68 142.00 83.53 141.32L83.53 141.32L82.76 137.63L102.97 110.64L109.87 110.64L109.87 137.25ZM123.77 123.24L119.93 122.56Q120.38 119.49 121.64 117.18Q122.91 114.86 124.82 113.31Q126.72 111.76 129.18 110.98Q131.64 110.20 134.48 110.20L134.48 110.20Q137.43 110.20 139.80 111.04Q142.18 111.88 143.86 113.37Q145.54 114.86 146.44 116.87Q147.34 118.87 147.34 121.20L147.34 121.20Q147.34 123.24 146.88 124.79Q146.42 126.34 145.57 127.49Q144.71 128.64 143.44 129.43Q142.18 130.23 140.58 130.76L140.58 130.76Q144.42 131.97 146.31 134.45Q148.19 136.93 148.19 140.67L148.19 140.67Q148.19 143.86 147.01 146.31Q145.83 148.76 143.83 150.42Q141.82 152.09 139.18 152.95Q136.54 153.80 133.59 153.80L133.59 153.80Q130.38 153.80 127.99 153.06Q125.60 152.33 123.83 150.88Q122.06 149.43 120.82 147.34Q119.58 145.25 118.69 142.50L118.69 142.50L121.91 141.17Q123.18 140.64 124.28 140.89Q125.39 141.15 125.89 142.09L125.89 142.09Q126.42 143.12 127.06 144.12Q127.69 145.13 128.58 145.91Q129.46 146.69 130.66 147.18Q131.85 147.66 133.50 147.66L133.50 147.66Q135.36 147.66 136.75 147.06Q138.13 146.46 139.06 145.48Q139.99 144.51 140.45 143.31Q140.91 142.12 140.91 140.91L140.91 140.91Q140.91 139.38 140.58 138.12Q140.26 136.87 139.23 135.98Q138.19 135.10 136.26 134.60Q134.33 134.09 131.08 134.09L131.08 134.09L131.08 128.90Q133.77 128.87 135.54 128.40Q137.31 127.93 138.36 127.09Q139.40 126.25 139.82 125.07Q140.23 123.89 140.23 122.47L140.23 122.47Q140.23 119.46 138.55 117.90Q136.87 116.34 134.06 116.34L134.06 116.34Q132.77 116.34 131.67 116.70Q130.58 117.07 129.71 117.74Q128.84 118.40 128.25 119.29Q127.66 120.17 127.37 121.23L127.37 121.23Q126.87 122.59 126.05 123.03Q125.24 123.47 123.77 123.24L123.77 123.24ZM168.96 146.54L179.91 146.54Q181.09 146.54 181.78 147.21Q182.47 147.87 182.47 148.96L182.47 148.96L182.47 153.33L153.21 153.33L153.21 150.91Q153.21 150.17 153.52 149.36Q153.83 148.55 154.51 147.90L154.51 147.90L167.46 134.92Q169.08 133.27 170.36 131.76Q171.65 130.26 172.50 128.78Q173.36 127.31 173.81 125.79Q174.27 124.27 174.27 122.59L174.27 122.59Q174.27 121.06 173.83 119.89Q173.39 118.73 172.58 117.93Q171.76 117.13 170.63 116.73Q169.49 116.34 168.08 116.34L168.08 116.34Q166.78 116.34 165.67 116.70Q164.57 117.07 163.71 117.74Q162.86 118.40 162.27 119.29Q161.68 120.17 161.38 121.23L161.38 121.23Q160.88 122.59 160.08 123.03Q159.29 123.47 157.78 123.24L157.78 123.24L153.95 122.56Q154.39 119.49 155.66 117.18Q156.93 114.86 158.83 113.31Q160.73 111.76 163.19 110.98Q165.66 110.20 168.49 110.20L168.49 110.20Q171.44 110.20 173.89 111.07Q176.34 111.94 178.08 113.53Q179.82 115.13 180.79 117.37Q181.77 119.61 181.77 122.35L181.77 122.35Q181.77 124.71 181.07 126.72Q180.38 128.73 179.21 130.55Q178.05 132.38 176.48 134.09Q174.92 135.81 173.21 137.58L173.21 137.58L163.59 147.40Q164.98 146.99 166.35 146.76Q167.72 146.54 168.96 146.54L168.96 146.54ZM230.56 143.56L226.69 147.37L216.69 137.37L206.60 147.43L202.74 143.62L212.83 133.50L203.21 123.89L207.05 120.05L216.66 129.67L226.22 120.11L230.12 123.95L220.53 133.53L230.56 143.56ZM266.08 146.54L277.02 146.54Q278.20 146.54 278.89 147.21Q279.59 147.87 279.59 148.96L279.59 148.96L279.59 153.33L250.32 153.33L250.32 150.91Q250.32 150.17 250.63 149.36Q250.94 148.55 251.62 147.90L251.62 147.90L264.57 134.92Q266.19 133.27 267.48 131.76Q268.76 130.26 269.62 128.78Q270.47 127.31 270.93 125.79Q271.39 124.27 271.39 122.59L271.39 122.59Q271.39 121.06 270.94 119.89Q270.50 118.73 269.69 117.93Q268.88 117.13 267.74 116.73Q266.61 116.34 265.19 116.34L265.19 116.34Q263.89 116.34 262.79 116.70Q261.68 117.07 260.83 117.74Q259.97 118.40 259.38 119.29Q258.79 120.17 258.49 121.23L258.49 121.23Q257.99 122.59 257.20 123.03Q256.40 123.47 254.90 123.24L254.90 123.24L251.06 122.56Q251.50 119.49 252.77 117.18Q254.04 114.86 255.94 113.31Q257.85 111.76 260.31 110.98Q262.77 110.20 265.60 110.20L265.60 110.20Q268.55 110.20 271.00 111.07Q273.45 111.94 275.19 113.53Q276.93 115.13 277.91 117.37Q278.88 119.61 278.88 122.35L278.88 122.35Q278.88 124.71 278.19 126.72Q277.49 128.73 276.33 130.55Q275.16 132.38 273.60 134.09Q272.04 135.81 270.32 137.58L270.32 137.58L260.71 147.40Q262.09 146.99 263.47 146.76Q264.84 146.54 266.08 146.54L266.08 146.54ZM310.36 110.67L297.70 126.16L296.23 127.99Q297.46 127.37 298.89 127.03Q300.33 126.69 301.98 126.69L301.98 126.69Q304.40 126.69 306.68 127.49Q308.97 128.28 310.71 129.89Q312.45 131.50 313.51 133.89Q314.57 136.28 314.57 139.46L314.57 139.46Q314.57 142.44 313.48 145.05Q312.39 147.66 310.41 149.61Q308.44 151.56 305.65 152.68Q302.86 153.80 299.50 153.80L299.50 153.80Q296.08 153.80 293.36 152.71Q290.65 151.62 288.73 149.66Q286.81 147.69 285.80 144.94Q284.78 142.18 284.78 138.81L284.78 138.81Q284.78 135.81 286.00 132.63Q287.23 129.46 289.79 126.04L289.79 126.04L299.97 112.38Q300.50 111.67 301.52 111.17Q302.54 110.67 303.87 110.67L303.87 110.67L310.36 110.67ZM299.35 147.84L299.35 147.84Q301.09 147.84 302.55 147.25Q304.01 146.66 305.06 145.60Q306.11 144.54 306.70 143.11Q307.29 141.68 307.29 139.99L307.29 139.99Q307.29 138.17 306.73 136.71Q306.17 135.25 305.13 134.23Q304.10 133.21 302.66 132.68Q301.21 132.15 299.47 132.15L299.47 132.15Q297.73 132.15 296.31 132.74Q294.90 133.33 293.89 134.37Q292.89 135.42 292.33 136.85Q291.77 138.28 291.77 139.94L291.77 139.94Q291.77 141.71 292.26 143.17Q292.74 144.63 293.70 145.66Q294.66 146.69 296.08 147.27Q297.49 147.84 299.35 147.84ZM324.55 137.25L337.53 137.25L337.53 123.30Q337.53 121.32 337.79 118.93L337.79 118.93L324.55 137.25ZM343.87 137.25L349.24 137.25L349.24 141.47Q349.24 142.06 348.85 142.49Q348.47 142.92 347.76 142.92L347.76 142.92L343.87 142.92L343.87 153.33L337.53 153.33L337.53 142.92L319.53 142.92Q318.79 142.92 318.23 142.46Q317.67 142.00 317.52 141.32L317.52 141.32L316.76 137.63L336.96 110.64L343.87 110.64L343.87 137.25Z" fill="#999999"/></svg>