<svg xmlns="http://www.w3.org/2000/svg" xmlns:xlink="http://www.w3.org/1999/xlink" width="656" height="400" viewBox="0 0 656 400"><rect width="100%" height="100%" fill="#DDDDDD"/><path d="M167.27 167.83L148.18 191.19L145.95 193.95Q147.82 193.01 149.98 192.50Q152.14 191.99 154.63 191.99L154.63 191.99Q158.28 191.99 161.73 193.19Q165.17 194.39 167.80 196.82Q170.43 199.24 172.03 202.85Q173.63 206.45 173.63 211.26L173.63 211.26Q173.63 215.75 171.98 219.69Q170.34 223.63 167.36 226.57Q164.37 229.50 160.17 231.19Q155.96 232.89 150.89 232.89L150.89 232.89Q145.73 232.89 141.63 231.24Q137.54 229.59 134.65 226.63Q131.76 223.67 130.22 219.51Q128.68 215.35 128.68 210.28L128.68 210.28Q128.68 205.74 130.53 200.96Q132.38 196.17 136.25 191.01L136.25 191.01L151.60 170.41Q152.40 169.34 153.94 168.58Q155.47 167.83 157.48 167.83L157.48 167.83L167.27 167.83ZM150.67 223.90L150.67 223.90Q153.29 223.90 155.50 223.01Q157.70 222.12 159.28 220.51Q160.86 218.91 161.75 216.75Q162.64 214.60 162.64 212.06L162.64 212.06Q162.64 209.30 161.79 207.10Q160.95 204.89 159.39 203.36Q157.83 201.82 155.65 201.02Q153.47 200.22 150.85 200.22L150.85 200.22Q148.22 200.22 146.08 201.11Q143.95 202.00 142.44 203.58Q140.92 205.16 140.08 207.32Q139.23 209.48 139.23 211.97L139.23 211.97Q139.23 214.64 139.97 216.84Q140.70 219.05 142.15 220.60Q143.59 222.16 145.73 223.03Q147.86 223.90 150.67 223.90ZM196.90 177.79L194.63 191.19Q196.77 190.74 198.73 190.54Q200.69 190.34 202.51 190.34L202.51 190.34Q207.58 190.34 211.45 191.86Q215.33 193.37 217.95 196.04Q220.58 198.71 221.91 202.29Q223.25 205.87 223.25 210.01L223.25 210.01Q223.25 215.13 221.44 219.36Q219.64 223.58 216.44 226.59Q213.23 229.59 208.85 231.24Q204.47 232.89 199.31 232.89L199.31 232.89Q196.28 232.89 193.57 232.26Q190.85 231.64 188.47 230.59Q186.09 229.55 184.06 228.19Q182.04 226.83 180.44 225.32L180.44 225.32L183.82 220.65Q184.89 219.13 186.62 219.13L186.62 219.13Q187.74 219.13 188.89 219.85Q190.05 220.56 191.54 221.40Q193.03 222.25 195.06 222.96Q197.08 223.67 199.93 223.67L199.93 223.67Q202.96 223.67 205.27 222.69Q207.58 221.72 209.12 219.96Q210.65 218.20 211.43 215.78Q212.21 213.35 212.21 210.50L212.21 210.50Q212.21 205.25 209.16 202.29Q206.11 199.33 200.15 199.33L200.15 199.33Q195.57 199.33 190.76 201.02L190.76 201.02L183.91 199.07L189.25 167.83L221.02 167.83L221.02 172.50Q221.02 174.86 219.55 176.33Q218.09 177.79 214.57 177.79L214.57 177.79L196.90 177.79ZM270.51 167.83L251.42 191.19L249.19 193.95Q251.06 193.01 253.22 192.50Q255.38 191.99 257.87 191.99L257.87 191.99Q261.52 191.99 264.97 193.19Q268.41 194.39 271.04 196.82Q273.67 199.24 275.27 202.85Q276.87 206.45 276.87 211.26L276.87 211.26Q276.87 215.75 275.22 219.69Q273.58 223.63 270.60 226.57Q267.61 229.50 263.41 231.19Q259.20 232.89 254.13 232.89L254.13 232.89Q248.97 232.89 244.87 231.24Q240.78 229.59 237.89 226.63Q235.00 223.67 233.46 219.51Q231.92 215.35 231.92 210.28L231.92 210.28Q231.92 205.74 233.77 200.96Q235.62 196.17 239.49 191.01L239.49 191.01L254.84 170.41Q255.64 169.34 257.18 168.58Q258.71 167.83 260.72 167.83L260.72 167.83L270.51 167.83ZM253.91 223.90L253.91 223.90Q256.53 223.90 258.74 223.01Q260.94 222.12 262.52 220.51Q264.10 218.91 264.99 216.75Q265.88 214.60 265.88 212.06L265.88 212.06Q265.88 209.30 265.03 207.10Q264.19 204.89 262.63 203.36Q261.07 201.82 258.89 201.02Q256.71 200.22 254.09 200.22L254.09 200.22Q251.46 200.22 249.32 201.11Q247.19 202.00 245.68 203.58Q244.16 205.16 243.32 207.32Q242.47 209.48 242.47 211.97L242.47 211.97Q242.47 214.64 243.21 216.84Q243.94 219.05 245.39 220.60Q246.83 222.16 248.97 223.03Q251.10 223.90 253.91 223.90ZM348.25 217.44L342.42 223.18L327.33 208.10L312.11 223.27L306.28 217.53L321.50 202.27L307.00 187.76L312.78 181.98L327.29 196.48L341.71 182.07L347.58 187.85L333.12 202.31L348.25 217.44ZM386.78 207.92L406.36 207.92L406.36 186.87Q406.36 183.89 406.77 180.29L406.77 180.29L386.78 207.92ZM415.93 207.92L424.03 207.92L424.03 214.28Q424.03 215.17 423.45 215.82Q422.87 216.47 421.81 216.47L421.81 216.47L415.93 216.47L415.93 232.17L406.36 232.17L406.36 216.47L379.22 216.47Q378.11 216.47 377.26 215.78Q376.42 215.09 376.19 214.06L376.19 214.06L375.04 208.50L405.52 167.78L415.93 167.78L415.93 207.92ZM475.70 200L475.70 200Q475.70 208.41 473.89 214.62Q472.09 220.83 468.91 224.88Q465.73 228.92 461.39 230.91Q457.05 232.89 452.02 232.89L452.02 232.89Q446.99 232.89 442.70 230.91Q438.40 228.92 435.25 224.88Q432.09 220.83 430.31 214.62Q428.53 208.41 428.53 200L428.53 200Q428.53 191.54 430.31 185.36Q432.09 179.17 435.25 175.12Q438.40 171.07 442.70 169.09Q446.99 167.11 452.02 167.11L452.02 167.11Q457.05 167.11 461.39 169.09Q465.73 171.07 468.91 175.12Q472.09 179.17 473.89 185.36Q475.70 191.54 475.70 200ZM464.35 200L464.35 200Q464.35 193.01 463.32 188.43Q462.30 183.85 460.59 181.13Q458.87 178.42 456.65 177.33Q454.42 176.24 452.02 176.24L452.02 176.24Q449.66 176.24 447.46 177.33Q445.26 178.42 443.57 181.13Q441.88 183.85 440.87 188.43Q439.87 193.01 439.87 200L439.87 200Q439.87 206.99 440.87 211.57Q441.88 216.15 443.57 218.87Q445.26 221.58 447.46 222.67Q449.66 223.76 452.02 223.76L452.02 223.76Q454.42 223.76 456.65 222.67Q458.87 221.58 460.59 218.87Q462.30 216.15 463.32 211.57Q464.35 206.99 464.35 200ZM527.32 200L527.32 200Q527.32 208.41 525.51 214.62Q523.71 220.83 520.53 224.88Q517.35 228.92 513.01 230.91Q508.67 232.89 503.64 232.89L503.64 232.89Q498.61 232.89 494.32 230.91Q490.02 228.92 486.87 224.88Q483.71 220.83 481.93 214.62Q480.15 208.41 480.15 200L480.15 200Q480.15 191.54 481.93 185.36Q483.71 179.17 486.87 175.12Q490.02 171.07 494.32 169.09Q498.61 167.11 503.64 167.11L503.64 167.11Q508.67 167.11 513.01 169.09Q517.35 171.07 520.53 175.12Q523.71 179.17 525.51 185.36Q527.32 191.54 527.32 200ZM515.97 200L515.97 200Q515.97 193.01 514.94 188.43Q513.92 183.85 512.21 181.13Q510.49 178.42 508.27 177.33Q506.04 176.24 503.64 176.24L503.64 176.24Q501.28 176.24 499.08 177.33Q496.88 178.42 495.19 181.13Q493.50 183.85 492.49 188.43Q491.49 193.01 491.49 200L491.49 200Q491.49 206.99 492.49 211.57Q493.50 216.15 495.19 218.87Q496.88 221.58 499.08 222.67Q501.28 223.76 503.64 223.76L503.64 223.76Q506.04 223.76 508.27 222.67Q510.49 221.58 512.21 218.87Q513.92 216.15 514.94 211.57Q515.97 206.99 515.97 200Z" fill="#999999"/></svg>