<svg xmlns="http://www.w3.org/2000/svg" xmlns:xlink="http://www.w3.org/1999/xlink" width="771" height="352" viewBox="0 0 771 352"><rect width="100%" height="100%" fill="#DDDDDD"/><path d="M151.69 138.04L204.14 138.04L204.14 143.66Q204.14 146.18 203.61 147.73Q203.09 149.28 202.56 150.33L202.56 150.33L173.79 209.55Q172.90 211.38 171.27 212.67Q169.65 213.96 166.92 213.96L166.92 213.96L157.52 213.96L186.87 155.94Q187.86 154.16 188.84 152.66Q189.81 151.17 191.01 149.80L191.01 149.80L154.68 149.80Q153.48 149.80 152.58 148.91Q151.69 148.02 151.69 146.81L151.69 146.81L151.69 138.04ZM212.59 138.04L265.04 138.04L265.04 143.66Q265.04 146.18 264.51 147.73Q263.99 149.28 263.46 150.33L263.46 150.33L234.69 209.55Q233.80 211.38 232.17 212.67Q230.55 213.96 227.82 213.96L227.82 213.96L218.42 213.96L247.77 155.94Q248.76 154.16 249.74 152.66Q250.71 151.17 251.91 149.80L251.91 149.80L215.58 149.80Q214.38 149.80 213.48 148.91Q212.59 148.02 212.59 146.81L212.59 146.81L212.59 138.04ZM309.30 204.24L322.95 204.24L322.95 213.96L280.95 213.96L280.95 204.24L296.33 204.24L296.33 159.99Q296.33 157.36 296.49 154.58L296.49 154.58L285.57 163.71Q284.62 164.45 283.70 164.63Q282.78 164.82 281.97 164.66Q281.16 164.50 280.53 164.11Q279.90 163.71 279.58 163.24L279.58 163.24L275.49 157.63L298.64 137.94L309.30 137.94L309.30 204.24ZM410.25 196.58L403.38 203.35L385.58 185.55L367.62 203.46L360.75 196.68L378.70 178.68L361.59 161.56L368.41 154.74L385.53 171.85L402.54 154.84L409.47 161.67L392.40 178.73L410.25 196.58ZM453.93 160.41L447.11 159.20Q447.90 153.74 450.15 149.62Q452.41 145.50 455.80 142.74Q459.18 139.98 463.57 138.59Q467.95 137.20 472.99 137.20L472.99 137.20Q478.24 137.20 482.47 138.70Q486.69 140.19 489.69 142.85Q492.68 145.50 494.28 149.07Q495.88 152.64 495.88 156.78L495.88 156.78Q495.88 160.41 495.07 163.16Q494.25 165.92 492.73 167.97Q491.21 170.01 488.95 171.43Q486.69 172.85 483.86 173.79L483.86 173.79Q490.68 175.95 494.04 180.36Q497.40 184.77 497.40 191.43L497.40 191.43Q497.40 197.10 495.30 201.46Q493.20 205.82 489.63 208.79Q486.06 211.75 481.36 213.27Q476.67 214.80 471.42 214.80L471.42 214.80Q465.69 214.80 461.44 213.48Q457.19 212.17 454.04 209.60Q450.89 207.03 448.68 203.30Q446.48 199.57 444.90 194.69L444.90 194.69L450.63 192.33Q452.88 191.38 454.85 191.83Q456.82 192.27 457.71 193.95L457.71 193.95Q458.66 195.79 459.79 197.58Q460.92 199.36 462.49 200.75Q464.07 202.14 466.19 203.01Q468.32 203.88 471.26 203.88L471.26 203.88Q474.57 203.88 477.03 202.80Q479.50 201.72 481.15 199.99Q482.81 198.26 483.62 196.13Q484.44 194.01 484.44 191.85L484.44 191.85Q484.44 189.12 483.86 186.89Q483.28 184.66 481.44 183.09Q479.61 181.51 476.17 180.62Q472.73 179.73 466.95 179.73L466.95 179.73L466.95 170.49Q471.73 170.43 474.88 169.59Q478.03 168.75 479.89 167.26Q481.76 165.76 482.49 163.66Q483.23 161.56 483.23 159.04L483.23 159.04Q483.23 153.69 480.24 150.90Q477.24 148.12 472.26 148.12L472.26 148.12Q469.95 148.12 468.00 148.78Q466.06 149.44 464.51 150.62Q462.96 151.80 461.91 153.37Q460.86 154.95 460.34 156.84L460.34 156.84Q459.45 159.25 458.00 160.04Q456.56 160.83 453.93 160.41L453.93 160.41ZM526.33 149.80L523.65 165.60Q526.17 165.08 528.48 164.84Q530.79 164.61 532.95 164.61L532.95 164.61Q538.93 164.61 543.50 166.39Q548.07 168.18 551.16 171.33Q554.26 174.48 555.84 178.70Q557.41 182.93 557.41 187.81L557.41 187.81Q557.41 193.85 555.28 198.84Q553.16 203.82 549.38 207.37Q545.60 210.91 540.43 212.85Q535.26 214.80 529.17 214.80L529.17 214.80Q525.60 214.80 522.39 214.06Q519.19 213.33 516.38 212.09Q513.57 210.86 511.18 209.26Q508.80 207.66 506.91 205.87L506.91 205.87L510.90 200.36Q512.16 198.57 514.20 198.57L514.20 198.57Q515.52 198.57 516.88 199.41Q518.25 200.25 520.00 201.25Q521.76 202.25 524.15 203.09Q526.54 203.93 529.90 203.93L529.90 203.93Q533.47 203.93 536.20 202.77Q538.93 201.62 540.74 199.55Q542.55 197.47 543.47 194.61Q544.39 191.75 544.39 188.39L544.39 188.39Q544.39 182.19 540.79 178.70Q537.20 175.21 530.16 175.21L530.16 175.21Q524.76 175.21 519.09 177.21L519.09 177.21L511.00 174.90L517.30 138.04L554.79 138.04L554.79 143.55Q554.79 146.34 553.05 148.07Q551.32 149.80 547.17 149.80L547.17 149.80L526.33 149.80ZM595.26 201.88L614.74 201.88Q616.84 201.88 618.07 203.06Q619.31 204.24 619.31 206.19L619.31 206.19L619.31 213.96L567.23 213.96L567.23 209.65Q567.23 208.34 567.78 206.90Q568.33 205.45 569.54 204.30L569.54 204.30L592.59 181.20Q595.47 178.26 597.76 175.58Q600.04 172.90 601.56 170.28Q603.09 167.65 603.90 164.95Q604.71 162.24 604.71 159.25L604.71 159.25Q604.71 156.52 603.93 154.45Q603.14 152.38 601.69 150.96Q600.25 149.54 598.23 148.83Q596.21 148.12 593.69 148.12L593.69 148.12Q591.38 148.12 589.41 148.78Q587.44 149.44 585.92 150.62Q584.40 151.80 583.35 153.37Q582.30 154.95 581.77 156.84L581.77 156.84Q580.88 159.25 579.46 160.04Q578.04 160.83 575.37 160.41L575.37 160.41L568.54 159.20Q569.33 153.74 571.59 149.62Q573.84 145.50 577.23 142.74Q580.62 139.98 585 138.59Q589.38 137.20 594.42 137.20L594.42 137.20Q599.67 137.20 604.03 138.75Q608.39 140.30 611.49 143.13Q614.58 145.97 616.32 149.96Q618.05 153.95 618.05 158.83L618.05 158.83Q618.05 163.03 616.81 166.60Q615.58 170.17 613.51 173.43Q611.43 176.68 608.65 179.73Q605.87 182.77 602.82 185.92L602.82 185.92L585.71 203.40Q588.18 202.67 590.62 202.28Q593.06 201.88 595.26 201.88L595.26 201.88Z" fill="#999999"/></svg>