<svg width="24" height="23" viewBox="0 0 24 23" fill="none" xmlns="http://www.w3.org/2000/svg">
<mask id="path-1-outside-1_489_5446" maskUnits="userSpaceOnUse" x="0" y="0" width="24" height="23" fill="black">
<rect fill="white" width="24" height="23"/>
<path d="M11.9992 5.18736C11.9992 5.18736 10.6705 2 6.99886 2C3.66529 2 2.03581 4.47826 2 7.78261C2 12.3261 6.99887 16.0435 11.9992 21C17.0004 16.0435 22 12.3261 22 7.78261C21.9642 4.47826 20.3345 2 17.0004 2C13.3292 2 11.9992 5.18736 11.9992 5.18736Z"/>
</mask>
<path d="M11.9992 5.18736L10.8916 5.6491L11.9987 8.30474L13.1067 5.64947L11.9992 5.18736ZM11.9992 21L11.1545 21.8523C11.6222 22.3159 12.3762 22.3159 12.844 21.8523L11.9992 21ZM2 7.78261L0.8 7.7696V7.78261H2ZM22 7.78261H23.2001L23.1999 7.7696L22 7.78261ZM6.99886 3.2C8.44615 3.2 9.40491 3.81527 10.0243 4.43916C10.3398 4.75685 10.5648 5.07616 10.7093 5.3134C10.781 5.43112 10.8311 5.5259 10.8613 5.58634C10.8763 5.61647 10.8863 5.63777 10.8913 5.64879C10.8938 5.65429 10.8951 5.65719 10.8951 5.65731C10.8951 5.65737 10.8949 5.65673 10.8943 5.65537C10.894 5.65469 10.8936 5.65383 10.8932 5.65279C10.893 5.65227 10.8927 5.6517 10.8925 5.65108C10.8923 5.65078 10.8921 5.65028 10.8921 5.65013C10.8918 5.64962 10.8916 5.6491 11.9992 5.18736C13.1068 4.72562 13.1066 4.72507 13.1064 4.72452C13.1063 4.72432 13.1061 4.72375 13.1059 4.72334C13.1056 4.72253 13.1052 4.72168 13.1048 4.72077C13.104 4.71895 13.1032 4.71693 13.1023 4.71472C13.1004 4.7103 13.0981 4.70509 13.0955 4.69912C13.0903 4.68718 13.0837 4.67218 13.0756 4.65434C13.0593 4.61866 13.0371 4.57149 13.0086 4.51446C12.9518 4.40059 12.8695 4.24636 12.7592 4.06527C12.5398 3.70488 12.2032 3.22735 11.7275 2.7482C10.7646 1.77841 9.2232 0.8 6.99886 0.8V3.2ZM12.844 20.1477C10.2552 17.5816 7.86949 15.5259 6.02282 13.4408C4.19694 11.3792 3.2 9.59829 3.2 7.78261H0.8C0.8 10.5104 2.30249 12.86 4.22614 15.032C6.129 17.1806 8.74294 19.4619 11.1545 21.8523L12.844 20.1477ZM3.19993 7.79561C3.21593 6.31933 3.58834 5.16389 4.19873 4.40316C4.77873 3.6803 5.66146 3.2 6.99886 3.2V0.8C5.00269 0.8 3.40389 1.55883 2.32681 2.90118C1.28012 4.20568 0.819882 5.94153 0.80007 7.7696L3.19993 7.79561ZM17.0004 0.8C14.7763 0.8 13.2347 1.77842 12.2717 2.74807C11.7959 3.22717 11.4592 3.70465 11.2396 4.06499C11.1293 4.24607 11.0469 4.40028 10.99 4.51414C10.9616 4.57115 10.9393 4.61832 10.9231 4.65399C10.915 4.67183 10.9083 4.68682 10.9031 4.69876C10.9005 4.70473 10.8983 4.70993 10.8964 4.71436C10.8954 4.71657 10.8946 4.71858 10.8938 4.7204C10.8934 4.72131 10.8931 4.72217 10.8927 4.72297C10.8926 4.72338 10.8923 4.72395 10.8922 4.72415C10.892 4.7247 10.8918 4.72525 11.9992 5.18736C13.1067 5.64947 13.1065 5.64999 13.1063 5.65049C13.1062 5.65065 13.106 5.65114 13.1059 5.65145C13.1056 5.65206 13.1054 5.65263 13.1051 5.65315C13.1047 5.6542 13.1043 5.65506 13.1041 5.65574C13.1035 5.6571 13.1032 5.65773 13.1032 5.65767C13.1033 5.65755 13.1045 5.65464 13.1071 5.64914C13.1121 5.63811 13.122 5.6168 13.1371 5.58666C13.1673 5.52622 13.2175 5.43141 13.2892 5.31367C13.4338 5.07639 13.659 4.75703 13.9746 4.43929C14.5943 3.81526 15.5533 3.2 17.0004 3.2V0.8ZM12.844 21.8523C15.2559 19.4619 17.8702 17.1807 19.7733 15.0321C21.6973 12.8601 23.2 10.5105 23.2 7.78261H20.8C20.8 9.59823 19.8029 11.3791 17.9768 13.4407C16.1298 15.5259 13.7438 17.5815 11.1545 20.1477L12.844 21.8523ZM23.1999 7.7696C23.1801 5.94149 22.7198 4.20561 21.6729 2.90111C20.5957 1.55877 18.9967 0.8 17.0004 0.8V3.2C18.3381 3.2 19.221 3.68036 19.8011 4.40323C20.4116 5.16395 20.7841 6.31937 20.8001 7.79561L23.1999 7.7696Z" fill="#1D1D1D" mask="url(#path-1-outside-1_489_5446)"/>
</svg>
