<svg width="296" height="48" viewBox="0 0 296 48" fill="none" xmlns="http://www.w3.org/2000/svg">
<path d="M276.356 12.6871C276.252 12.6172 276.148 12.5822 276.043 12.5822C275.209 12.6522 273.923 12.9669 272.949 13.3516C271.698 13.9111 270.411 14.8203 269.299 15.8344V13.0368C269.299 12.792 269.125 12.6172 268.882 12.6172H261.303C261.095 12.6172 260.886 12.792 260.886 13.0368V38.1454C260.886 38.3902 261.095 38.5651 261.303 38.5651H269.368C269.577 38.5651 269.786 38.3902 269.786 38.1454V21.6045C270.029 21.4996 270.377 21.3597 270.377 21.3597C271.072 21.08 271.767 20.7652 272.949 20.5554C274.201 20.3456 275.348 20.3106 276.043 20.3806C276.148 20.3806 276.287 20.3456 276.356 20.2757C276.46 20.1707 276.495 20.0658 276.495 19.9609V13.0019C276.495 12.8969 276.46 12.7571 276.356 12.6871Z" fill="#1D1D1D" fill-opacity="0.8"/>
<path d="M200.499 37.9008C200.499 37.9008 191.634 25.3814 191.286 24.8918C191.634 24.4372 199.943 13.2817 199.943 13.2817C199.977 13.2118 200.012 13.1069 200.012 13.0369C200.012 12.967 200.012 12.8971 199.977 12.8271C199.908 12.6872 199.769 12.6173 199.595 12.6173H191.251C191.112 12.6173 191.008 12.6872 190.904 12.7921C190.904 12.7921 186.802 18.7721 186.211 19.6463C185.62 18.7721 181.552 12.7921 181.552 12.7921C181.483 12.6872 181.344 12.6173 181.205 12.6173H172.27C172.131 12.6173 171.992 12.6872 171.922 12.8271C171.888 12.8971 171.853 12.967 171.853 13.0369C171.853 13.1069 171.888 13.2118 171.957 13.2817C171.957 13.2817 180.648 24.6121 180.996 25.0667C180.648 25.5912 171.783 37.9008 171.783 37.9008C171.749 37.9707 171.714 38.0756 171.714 38.1455C171.714 38.2155 171.714 38.2854 171.749 38.3554C171.818 38.4952 171.992 38.5652 172.131 38.5652H180.857C181.031 38.5652 181.135 38.4952 181.239 38.3554C181.239 38.3554 185.481 31.5012 186.106 30.4871C186.732 31.5012 190.834 38.3554 190.834 38.3554C190.939 38.4952 191.043 38.5652 191.217 38.5652H200.151C200.325 38.5652 200.464 38.4952 200.534 38.3554C200.568 38.2854 200.568 38.2155 200.568 38.1455C200.568 38.0756 200.568 37.9707 200.499 37.9008Z" fill="#1D1D1D" fill-opacity="0.8"/>
<path d="M215.727 12.3726C214.718 12.5125 213.71 12.7223 212.772 13.037C211.972 13.2818 211.172 13.6315 210.477 14.0162V13.037C210.477 12.7922 210.303 12.6174 210.06 12.6174H202.481C202.273 12.6174 202.064 12.7922 202.064 13.037V46.9231C202.064 47.133 202.273 47.3428 202.481 47.3428H210.547C210.755 47.3428 210.964 47.133 210.964 46.9231V38.1456C211.485 38.3205 212.076 38.4953 212.598 38.6002C213.432 38.7751 214.44 38.915 215.727 38.9849V32.2706C215.205 32.3406 214.649 32.3755 214.058 32.3406C212.841 32.3056 211.624 32.0258 210.964 31.7461V20.3108C211.59 19.9261 212.285 19.6464 212.98 19.4366C213.78 19.2267 214.823 19.0869 215.553 19.0869H215.727V12.3726ZM226.782 16.0445C224.8 13.6665 221.984 12.4076 218.403 12.2677C217.534 12.2327 216.63 12.2677 215.727 12.3726V19.0869C217.361 19.1218 218.508 19.6464 219.377 20.7305C220.107 21.6747 220.489 23.2133 220.524 25.3116C220.524 27.5496 220.003 29.3681 219.029 30.5921C218.264 31.5013 217.152 32.0608 215.727 32.2706V38.9849H216.735C218.438 38.9499 220.559 38.5303 221.88 37.9708C223.479 37.2714 224.731 36.3621 225.878 35.1382C226.99 33.9142 227.825 32.5504 228.45 30.8718C229.041 29.1932 229.389 27.0601 229.389 24.822C229.389 21.29 228.45 18.0727 226.782 16.0445Z" fill="#1D1D1D" fill-opacity="0.8"/>
<path d="M294.19 32.5507C294.085 32.4457 293.946 32.4108 293.842 32.4457C293.633 32.5157 291.756 32.6556 291.339 32.6556C290.192 32.6905 289.392 32.5856 289.044 32.3758C288.627 32.131 288.419 31.8862 288.21 31.4316C288.002 30.942 287.967 30.2426 287.967 29.6831L287.932 27.41V19.4019H293.564C293.772 19.4019 293.981 19.227 293.981 18.9822V13.5269C293.981 13.2821 293.772 13.1072 293.564 13.1072H287.793V5.83342C287.793 5.69354 287.758 5.58863 287.654 5.51869C287.55 5.41378 287.376 5.41378 287.271 5.44875L279.345 7.86169C279.171 7.89666 279.067 8.07151 279.067 8.24636V30.2077C279.067 33.5648 279.797 35.663 281.501 37.0618C283.1 38.3907 285.533 39.0901 288.697 39.0901L292.312 38.8803L292.695 38.8453L294.016 38.6355C294.224 38.6005 294.363 38.4257 294.363 38.2158V32.8654C294.363 32.7255 294.294 32.6206 294.19 32.5507Z" fill="#1D1D1D" fill-opacity="0.8"/>
<path d="M159.13 11.8129C155.201 11.9527 152.038 13.1767 149.535 15.5547C147.032 18.0026 145.676 21.4996 145.607 25.696C145.572 29.8924 147.171 33.8441 149.743 36.0472C152.247 38.1454 155.097 39.1246 159.13 39.2295V32.6551C157.983 32.4802 157.114 32.1305 156.418 31.606C155.688 31.0465 154.854 29.7526 154.645 27.9691H159.13V22.4438H154.576C154.68 21.045 155.306 19.4713 156.071 18.8069C157.009 18.0026 157.809 17.6878 159.13 17.6529V11.8129ZM159.13 39.2295H160.381C163.371 39.1945 165.874 38.7749 169.281 37.7957C169.455 37.7607 169.594 37.5859 169.594 37.3761V31.8508C169.594 31.7109 169.524 31.571 169.42 31.5011C169.316 31.4311 169.177 31.3962 169.038 31.4311C166.569 32.2704 163.788 32.725 162.259 32.795C161.042 32.8299 159.999 32.795 159.13 32.6551V39.2295ZM169.072 15.3448C166.987 12.9319 164.032 11.8129 159.79 11.8129H159.13V17.6529H159.373C160.799 17.6529 161.737 18.0026 162.502 18.8419C163.093 19.4713 163.649 20.975 163.649 22.4088V22.4438H159.13V27.9691H171.541C171.749 27.9691 171.958 27.7942 171.958 27.5494L172.062 25.2414V24.8218C172.062 20.7303 171.124 17.6878 169.072 15.3448Z" fill="#1D1D1D" fill-opacity="0.8"/>
<path d="M244.79 11.8129C240.861 11.9527 237.732 13.1767 235.229 15.5547C232.692 18.0026 231.336 21.4996 231.301 25.696C231.266 29.8924 232.865 33.8441 235.438 36.0472C237.941 38.1454 240.792 39.1246 244.79 39.2295V32.6551C243.677 32.4802 242.808 32.1305 242.113 31.606C241.383 31.0465 240.548 29.7875 240.305 27.9691H244.79V22.4438H240.27C240.34 21.045 240.966 19.4713 241.765 18.8069C242.669 18.0026 243.469 17.6878 244.79 17.6529V11.8129ZM244.79 39.2295H246.076C249.066 39.1945 251.534 38.7749 254.976 37.7957C255.149 37.7607 255.288 37.5859 255.288 37.3761V31.8508C255.288 31.7109 255.219 31.571 255.08 31.5011C254.976 31.4311 254.837 31.3962 254.732 31.4311C252.264 32.2704 249.483 32.725 247.953 32.795C246.702 32.8299 245.694 32.795 244.79 32.6551V39.2295ZM254.767 15.3448C252.646 12.9319 249.691 11.8129 245.45 11.8129H244.79V17.6529H245.068C246.458 17.6529 247.397 18.0026 248.197 18.8419C248.788 19.4713 249.344 20.975 249.344 22.3739V22.4438H244.79V27.9691H257.235C257.444 27.9691 257.652 27.7942 257.652 27.5494L257.757 25.2414V24.7868C257.757 20.7303 256.783 17.6878 254.767 15.3448Z" fill="#1D1D1D" fill-opacity="0.8"/>
<path d="M113.519 12.6169H105.488C105.245 12.6169 105.071 12.7918 105.071 13.0366V38.1452C105.071 38.39 105.245 38.5648 105.488 38.5648H113.519C113.762 38.5648 113.971 38.39 113.971 38.1452V13.0366C113.971 12.7918 113.762 12.6169 113.519 12.6169Z" fill="#1D1D1D" fill-opacity="0.8"/>
<path d="M86.2989 12.2332C85.986 12.1982 85.6731 12.1982 85.3255 12.1982C83.5873 12.2332 81.4666 12.6528 80.1456 13.2473C78.5812 13.9117 77.2949 14.821 76.1477 16.0799C75.0352 17.2689 74.2009 18.6677 73.6099 20.3113C72.9841 21.9898 72.6365 24.123 72.6365 26.3611C72.6365 29.8931 73.6099 33.1104 75.2786 35.1386C77.2254 37.5166 80.0413 38.8105 83.622 38.9504C84.4911 38.9853 85.395 38.9154 86.2989 38.8105V32.1312C84.665 32.0962 83.5177 31.5717 82.6834 30.4876C81.9186 29.5434 81.5362 27.9697 81.5362 25.8715C81.5014 23.6334 82.0229 21.815 83.031 20.626C83.7958 19.7168 84.8735 19.1573 86.2989 18.9474V12.2332ZM99.5441 3.87529H91.5135C91.2702 3.87529 91.0964 4.05014 91.0964 4.29493V13.0724C90.5749 12.8626 89.9491 12.6878 89.4277 12.5829C88.5933 12.443 87.6199 12.2681 86.2989 12.2332V18.9474C86.8203 18.8775 87.3766 18.8425 87.9676 18.8775C89.1843 18.8775 90.4011 19.1922 91.0964 19.472V30.9072C90.4358 31.2569 89.7406 31.5717 89.0453 31.7465C88.2804 31.9913 87.2028 32.1312 86.4727 32.1312H86.2989V38.8105C87.3418 38.7056 88.35 38.4958 89.2886 38.181C90.0534 37.9362 90.853 37.5865 91.5483 37.2019V38.1461C91.5483 38.3909 91.7569 38.6007 91.9655 38.6007H99.5441C99.7875 38.6007 99.9613 38.3909 99.9613 38.1461V4.29493C99.9613 4.05014 99.7875 3.87529 99.5441 3.87529Z" fill="#1D1D1D" fill-opacity="0.8"/>
<path d="M57.2011 11.8129C53.2727 11.9527 50.1091 13.1767 47.6061 15.5547C45.1031 18.0026 43.7472 21.4996 43.7125 25.696C43.6777 29.8924 45.2421 33.8441 47.8494 36.0472C50.3177 38.1454 53.1684 39.1246 57.2011 39.2295V32.6551C56.0538 32.4802 55.1847 32.1305 54.4895 31.606C53.7942 31.0465 52.9251 29.7875 52.7165 27.9691H57.2011V22.4438H52.6469C52.7512 21.045 53.377 19.4713 54.1418 18.8069C55.0804 18.0026 55.88 17.6878 57.2011 17.6529V11.8129ZM57.2011 39.2295H58.4526C61.4423 39.1945 63.9454 38.7749 67.3523 37.7957C67.5261 37.7607 67.6652 37.5859 67.6652 37.3761V31.8508C67.6652 31.7109 67.5956 31.571 67.4913 31.5011C67.387 31.4311 67.248 31.3962 67.1089 31.4311C64.6407 32.2704 61.8595 32.725 60.3299 32.795C59.1131 32.8299 58.0702 32.795 57.2011 32.6551V39.2295ZM67.1437 15.3448C65.0578 12.9319 62.1029 11.8129 57.8616 11.8129H57.2011V17.6529H57.4444C58.8698 17.6529 59.8084 18.0026 60.5732 18.8419C61.1642 19.4713 61.7204 20.975 61.7204 22.3739V22.4438H57.2011V27.9691H69.612C69.8553 27.9691 70.0291 27.7942 70.0291 27.5494L70.1334 25.2414V24.8218C70.1334 20.7303 69.1948 17.6878 67.1437 15.3448Z" fill="#1D1D1D" fill-opacity="0.8"/>
<path d="M129.544 21.6045C128.884 21.6745 128.154 21.7794 127.424 21.8493C125.199 22.164 123.287 22.6536 121.792 23.3181C120.332 23.9475 119.08 24.9966 118.142 26.3255C117.203 27.6544 116.855 29.6477 116.855 31.0465V31.1864C116.855 32.8999 117.238 35.2079 119.15 36.9564C120.749 38.4252 122.8 39.1945 125.408 39.2295C126.798 39.2645 128.189 39.1246 129.544 38.8099V32.9698C129.232 33.0398 128.919 33.0747 128.606 33.1097C127.285 33.1447 126.381 32.9349 125.79 31.8508C125.616 31.571 125.512 31.1514 125.512 30.6618C125.512 30.0323 125.651 29.3679 126.103 28.7384C126.59 28.074 127.702 27.4795 129.232 27.0948C129.336 27.0599 129.44 27.0599 129.544 27.0249V21.6045ZM129.544 11.8828C127.911 11.9178 126.207 12.0926 124.469 12.3724L120.958 13.1068L120.332 13.2467C120.158 13.2816 119.984 13.4565 119.984 13.6313V18.9818C119.984 19.0867 120.054 19.2266 120.158 19.2965C120.297 19.4014 120.436 19.4014 120.54 19.3664C121.131 19.1566 122.661 18.6321 124.469 18.3173C125.581 18.1075 126.972 17.9676 128.362 17.9327C128.78 17.9327 129.197 17.9327 129.544 17.9676V11.8828ZM142.407 22.0242C142.303 18.4572 141.156 15.6246 139.209 14.0859C137.992 13.1767 136.497 12.5472 134.551 12.1975C133.125 11.9528 131.491 11.8478 129.544 11.8828V17.9676C130.796 18.0026 131.7 18.2474 132.36 18.702C133.16 19.1916 133.542 20.0658 133.612 21.2548C132.256 21.3597 130.935 21.4646 129.544 21.6045V27.0249C130.622 26.7801 132.013 26.6053 133.612 26.4654V31.1864C133.021 31.641 131.352 32.6551 129.544 32.9698V38.8099C130.414 38.635 131.283 38.3552 132.117 38.0405C132.117 38.0405 133.369 37.446 134.099 37.1313V38.1454C134.099 38.3902 134.272 38.5651 134.516 38.5651H141.99C142.199 38.5651 142.407 38.3902 142.407 38.1454C142.407 38.0055 142.477 25.2414 142.407 22.0242Z" fill="#1D1D1D" fill-opacity="0.8"/>
<path d="M39.1233 14.6804C37.9413 13.3166 36.2726 12.4773 34.0824 12.1975L33.5957 12.1276C33.561 12.1276 33.3524 12.0926 33.3524 12.0926L32.5876 12.0577C30.606 12.0577 28.7287 12.4423 27.0253 13.1417C25.9476 13.5964 24.557 14.5056 23.8617 14.9952C23.0621 13.8062 21.9149 12.9319 20.3505 12.4773C19.5857 12.2675 18.7513 12.1276 17.7432 12.0926C15.9702 12.0227 13.7105 12.3374 12.2504 12.862C11.3117 13.1767 10.1297 13.7362 8.91299 14.5755V13.0368C8.91299 12.792 8.7044 12.6172 8.49582 12.6172H0.917172C0.673821 12.6172 0.5 12.792 0.5 13.0368V38.1454C0.5 38.3902 0.673821 38.5651 0.917172 38.5651H8.98252C9.1911 38.5651 9.39969 38.3902 9.39969 38.1454V20.5904C10.1297 20.1008 11.5898 19.4014 12.9804 19.2615C13.9886 19.1916 14.7882 19.3664 15.3444 19.856C16.2135 20.5904 16.283 21.8843 16.3526 22.4438C16.3526 22.5487 16.4221 25.5911 16.4221 25.5911V38.1454C16.4221 38.3902 16.6307 38.5651 16.8393 38.5651H24.8351C25.0784 38.5651 25.2523 38.3902 25.2523 38.1454V20.5904C25.9823 20.1008 27.4772 19.4014 28.8678 19.2615C29.8759 19.1916 30.6755 19.3664 31.2317 19.856C32.1009 20.5904 32.1704 21.8843 32.2052 22.4438C32.2052 22.5487 32.3094 25.5911 32.3094 25.5911V38.1454C32.3094 38.3902 32.4833 38.5651 32.7266 38.5651H40.8267C41.0353 38.5651 41.2439 38.3902 41.2439 38.1454V21.8143C41.2439 18.5621 40.5834 16.359 39.1233 14.6804Z" fill="#1D1D1D" fill-opacity="0.8"/>
<path d="M115.292 5.79799L110.008 0.482524C109.938 0.412584 109.834 0.342643 109.73 0.342643C109.591 0.342643 109.486 0.412584 109.417 0.482524L104.133 5.79799C103.959 5.97284 103.959 6.21764 104.133 6.39249L109.417 11.708C109.486 11.7779 109.591 11.8129 109.73 11.8129C109.834 11.8129 109.938 11.7779 110.008 11.708L115.292 6.39249C115.466 6.21764 115.466 5.97284 115.292 5.79799Z" fill="#1D1D1D" fill-opacity="0.8"/>
</svg>
