<svg width="24" height="24" viewBox="0 0 24 24" fill="none" xmlns="http://www.w3.org/2000/svg">
<path fill-rule="evenodd" clip-rule="evenodd" d="M6.74511 0.547105C-1.65693 3.54901 -2.39174 15.0257 5.56821 18.9328C8.30381 20.2756 11.6845 20.2645 14.4562 18.9043L16.4171 17.9419L19.5191 21.0298C22.6456 24.1415 23.7207 24.6748 23.995 23.25C24.0777 22.8205 23.1453 21.6501 21.0266 19.523L17.9373 16.4223L18.9002 14.4622C20.1404 11.9371 20.2462 8.34662 19.1511 5.95669C16.9878 1.23774 11.5046 -1.15354 6.74511 0.547105ZM12.4561 2.36358C15.3344 3.21356 18.0211 6.89606 18.0211 9.99102C18.0211 14.1392 14.133 18.0256 9.98308 18.0256C6.88678 18.0256 3.2027 15.34 2.35235 12.463C1.42497 9.32516 2.07872 6.82341 4.44557 4.45222C6.79501 2.09877 9.32564 1.43894 12.4561 2.36358Z" fill="black"/>
</svg>
